# xmcd
#
# Track frame offsets:
#	150
#	12734
#	24823
#	44701
#	57840
#	76617
#	91750
#	103103
#	122122
#	137577
#	149666
#	171439
#	187283
#	201741
#	220957
#	233528
#	250048
#	269089
#	283290
#	295087
#	308960
#
# Disc length: 4313 seconds
#
# Revision: 0
# Processed by: cddbd v1.5.2PL0 Copyright (c) Steve Scherf et al.
# Submitted via: EasyCDDAExtractor 10.2.0.1
#
DISCID=4a10d715
DTITLE=Various Artist - Circuit Rider Records Vol. 37
DYEAR=2002
DGENRE=Gospel
TTITLE0=The Shinning Lights - Jesus My Savior, Jesus My Friend
TTITLE1=Martha Welch - They Would Do It Again
TTITLE2=W.C.Taylor - Come To Jesus
TTITLE3=Lyle Stubbs - My Savior Died For Me
TTITLE4=Vicki Atwood - Behind The Vail
TTITLE5=B.J. And Buddy - He's Coming Again
TTITLE6=Mike Abrams - Don't Talk The Talk
TTITLE7=Rod And Bonnie Wilson - The Galilean
TTITLE8=Julia - God Always Made A Way
TTITLE9=Young Harmony - Power In His Name
TTITLE10=Wyvette Davis - Just Stop And Thank Jesus
TTITLE11=Jerry Yates - Everything Is Possible
TTITLE12=Gloria Henson - The Blood Of Calvary
TTITLE13=Sue Alexander - I Need A Savior
TTITLE14=Pat Neal - One Glorious Day
TTITLE15=Shirley Berry - On Your Knees
TTITLE16=The Marksmen - Potters Wheel
TTITLE17=Ron Hughes - I'm Gonna Climb That Mountain
TTITLE18=Steve McGregory - When We All Get To Heaven
TTITLE19=Paul Jones - Your Wayward Heart
TTITLE20=The Flowers Family - Far Side Banks Of Jordan
EXTD=
EXTT0=
EXTT1=
EXTT2=
EXTT3=
EXTT4=
EXTT5=
EXTT6=
EXTT7=
EXTT8=
EXTT9=
EXTT10=
EXTT11=
EXTT12=
EXTT13=
EXTT14=
EXTT15=
EXTT16=
EXTT17=
EXTT18=
EXTT19=
EXTT20=
PLAYORDER=
